<svg width="354" height="103" viewBox="0 0 354 103" fill="none" xmlns="http://www.w3.org/2000/svg">
<g clip-path="url(#clip0)">
<path d="M5.00424 16.4521C5.00424 18.4091 5.73704 18.9604 6.83536 18.9604C8.05551 18.9604 8.84924 18.226 8.84924 16.4215C8.84924 16.2994 8.91016 16.2689 9.03199 16.2689L13.488 17.3085C13.6098 17.339 13.6403 17.4306 13.6403 17.5222C13.1511 21.5279 9.79526 22.4454 6.83536 22.4454C3.38812 22.4454 0 21.2227 0 16.4521V5.99334C0 1.22273 3.38812 0 6.83536 0C9.79526 0 13.1529 0.917495 13.6403 4.92323C13.6403 5.0148 13.6098 5.10637 13.488 5.13689L9.03199 6.17648C8.91016 6.17648 8.84924 6.14596 8.84924 6.02386C8.84924 4.2194 8.05551 3.48504 6.83536 3.48504C5.73704 3.48504 5.00424 4.03626 5.00424 5.99334V16.4521Z" fill="#FC4F60"/>
<path d="M28.5028 16.5131C28.5028 21.3753 24.7796 22.4454 21.6674 22.4454C18.5552 22.4454 14.832 21.3753 14.832 16.5131V5.93229C14.832 1.07011 18.5534 0 21.6674 0C24.7814 0 28.5028 1.07011 28.5028 5.93229V16.5131ZM21.6674 3.48684C20.5691 3.48684 19.8363 3.97701 19.8363 5.93409V16.5149C19.8363 18.472 20.5691 18.9622 21.6674 18.9622C22.7657 18.9622 23.4985 18.472 23.4985 16.5149V5.93229C23.4985 3.97521 22.7657 3.48684 21.6674 3.48684Z" fill="#FC4F60"/>
<path d="M35.2464 18.4395H41.7772C41.899 18.4395 41.9599 18.5005 41.9599 18.6226V21.7414C41.9599 21.8635 41.899 21.9245 41.7772 21.9245H30.4249C30.3031 21.9245 30.2422 21.8635 30.2422 21.7414V0.703648C30.2422 0.581554 30.3031 0.520508 30.4249 0.520508H35.0637C35.1855 0.520508 35.2464 0.581554 35.2464 0.703648V18.4395Z" fill="#FC4F60"/>
<path d="M48.3993 18.4395H54.93C55.0518 18.4395 55.1128 18.5005 55.1128 18.6226V21.7414C55.1128 21.8635 55.0518 21.9245 54.93 21.9245H43.5778C43.4559 21.9245 43.395 21.8635 43.395 21.7414V0.703648C43.395 0.581554 43.4559 0.520508 43.5778 0.520508H48.2165C48.3383 0.520508 48.3993 0.581554 48.3993 0.703648V18.4395Z" fill="#FC4F60"/>
<path d="M59.9953 21.8042C59.9648 21.8958 59.9344 21.9263 59.8125 21.9263H56.4871C56.3958 21.9263 56.2739 21.9263 56.2739 21.7432L61.8873 0.642601C61.9178 0.551031 61.9483 0.520508 62.0396 0.520508H65.6105C65.7019 0.520508 65.7628 0.551031 65.7933 0.642601L71.378 21.7432C71.378 21.9263 71.2866 21.9263 71.1953 21.9263H66.4651C66.3738 21.9263 66.3129 21.8958 66.2824 21.8042L65.58 19.2044H60.6976L59.9953 21.8042ZM63.138 9.69366L61.6114 15.7175H64.6627L63.138 9.69366Z" fill="#FC4F60"/>
<path d="M85.9032 14.985V16.5758C85.9032 20.4899 83.6456 21.9281 79.4638 21.9281H73.0548C72.933 21.9281 72.8721 21.8671 72.8721 21.745V0.703648C72.8721 0.581554 72.933 0.520508 73.0548 0.520508H79.5856C82.8501 0.520508 85.0485 2.17236 85.0485 5.68792C85.0485 7.98076 84.072 9.32738 82.8214 10.0617C84.5612 10.6722 85.9032 12.0493 85.9032 14.985ZM78.7023 8.47093C79.7092 8.47093 80.3507 8.01308 80.3507 6.23914C80.3507 4.4652 79.7092 4.00735 78.7023 4.00735H77.8781V8.47273H78.7023V8.47093ZM77.8781 18.4395H79.0983C80.1966 18.4395 80.8989 17.8883 80.8989 15.9617V14.432C80.8989 12.5054 80.1966 11.9542 79.0983 11.9542H77.8781V18.4395Z" fill="#FC4F60"/>
<path d="M101.498 16.5131C101.498 21.3753 97.7752 22.4454 94.663 22.4454C91.5508 22.4454 87.8276 21.3753 87.8276 16.5131V5.93229C87.8258 1.07011 91.549 0 94.6612 0C97.7734 0 101.497 1.07011 101.497 5.93229V16.5131H101.498ZM94.6612 3.48684C93.5629 3.48684 92.8301 3.97701 92.8301 5.93409V16.5149C92.8301 18.472 93.5629 18.9622 94.6612 18.9622C95.7595 18.9622 96.4923 18.472 96.4923 16.5149V5.93229C96.4923 3.97521 95.7613 3.48684 94.6612 3.48684Z" fill="#FC4F60"/>
<path d="M110.165 0.520508C112.911 0.520508 115.871 1.86533 115.871 6.48333C115.871 9.26633 114.742 10.8571 113.246 11.7118L116.787 21.6193C116.817 21.7109 116.817 21.7719 116.817 21.8024C116.817 21.894 116.756 21.9245 116.634 21.9245H111.874C111.813 21.9245 111.752 21.894 111.722 21.8024L108.853 12.4443H108.242V21.7414C108.242 21.8635 108.181 21.9245 108.059 21.9245H103.421C103.299 21.9245 103.238 21.8635 103.238 21.7414V0.703648C103.238 0.581554 103.299 0.520508 103.421 0.520508H110.165ZM110.867 6.48333C110.867 4.55677 110.134 4.00555 109.036 4.00555H108.242V8.95931H109.036C110.134 8.95931 110.867 8.40989 110.867 6.48333Z" fill="#FC4F60"/>
<path d="M121.515 21.8042C121.485 21.8958 121.454 21.9263 121.333 21.9263H118.007C117.916 21.9263 117.794 21.9263 117.794 21.7432L123.407 0.642601C123.438 0.551031 123.468 0.520508 123.56 0.520508H127.131C127.222 0.520508 127.283 0.551031 127.313 0.642601L132.898 21.7432C132.898 21.9263 132.807 21.9263 132.715 21.9263H127.985C127.894 21.9263 127.833 21.8958 127.802 21.8042L127.1 19.2044H122.218L121.515 21.8042ZM124.66 9.69366L123.133 15.7175H126.185L124.66 9.69366Z" fill="#FC4F60"/>
<path d="M141.017 4.00555V21.7432C141.017 21.8653 140.956 21.9263 140.834 21.9263H136.195C136.073 21.9263 136.012 21.8653 136.012 21.7432V4.00555H131.465C131.343 4.00555 131.282 3.9445 131.282 3.82241V0.703648C131.282 0.581554 131.343 0.520508 131.465 0.520508H145.564C145.686 0.520508 145.747 0.581554 145.747 0.703648V3.82241C145.747 3.9445 145.686 4.00555 145.564 4.00555H141.017Z" fill="#FC4F60"/>
<path d="M152.643 21.7432C152.643 21.8653 152.582 21.9263 152.46 21.9263H147.821C147.7 21.9263 147.639 21.8653 147.639 21.7432V0.703648C147.639 0.581554 147.7 0.520508 147.821 0.520508H152.46C152.582 0.520508 152.643 0.581554 152.643 0.703648V21.7432Z" fill="#FC4F60"/>
<path d="M169.306 0.520508C169.458 0.520508 169.488 0.612078 169.488 0.734171L163.873 21.8042C163.843 21.8958 163.782 21.9263 163.69 21.9263H160.12C160.059 21.9263 159.998 21.8958 159.967 21.8042L154.352 0.703648C154.352 0.551031 154.413 0.520508 154.535 0.520508H159.295C159.387 0.520508 159.417 0.551031 159.448 0.642601L162.621 12.9058L165.763 0.642601C165.794 0.551031 165.824 0.520508 165.916 0.520508H169.306Z" fill="#FC4F60"/>
<path d="M182.702 21.7432C182.702 21.8653 182.641 21.9263 182.519 21.9263H171.167C171.045 21.9263 170.984 21.8653 170.984 21.7432V0.703648C170.984 0.581554 171.045 0.520508 171.167 0.520508H182.519C182.641 0.520508 182.702 0.581554 182.702 0.703648V3.82241C182.702 3.9445 182.641 4.00555 182.519 4.00555H175.989V8.47093H181.665C181.787 8.47093 181.848 8.53198 181.848 8.65407V11.7728C181.848 11.8949 181.787 11.956 181.665 11.956H175.989V18.4395H182.519C182.641 18.4395 182.702 18.5005 182.702 18.6226V21.7432Z" fill="#FC4F60"/>
<path d="M57.1895 45.8566C57.3114 45.8566 57.3723 45.9177 57.3723 46.0398V47.4457C57.3723 47.5677 57.3114 47.6288 57.1895 47.6288H49.6823C49.5604 47.6288 49.4995 47.5677 49.4995 47.4457V46.0398C49.4995 45.9177 49.5604 45.8566 49.6823 45.8566H57.1895ZM56.3958 33.4714C56.5176 33.4714 56.5785 33.5324 56.5785 33.6545V35.0604C56.5785 35.1825 56.5176 35.2435 56.3958 35.2435H53.2227V37.4143H55.9998C56.1217 37.4143 56.1826 37.4753 56.1826 37.5974V39.0033C56.1826 39.1254 56.1217 39.1864 55.9998 39.1864H53.2227V43.9875C53.2227 44.1096 53.1618 44.1707 53.0399 44.1707H50.9042C50.7824 44.1707 50.7215 44.1096 50.7215 43.9875V33.6509C50.7215 33.5288 50.7824 33.4678 50.9042 33.4678H56.3958V33.4714Z" fill="#FC4F60"/>
<path d="M65.0316 45.8567C65.1535 45.8567 65.2144 45.9178 65.2144 46.0399V47.4458C65.2144 47.5679 65.1535 47.6289 65.0316 47.6289H56.6715C56.5497 47.6289 56.4888 47.5679 56.4888 47.4458V46.0399C56.4888 45.9178 56.5497 45.8567 56.6715 45.8567H65.0316ZM57.433 36.285C57.433 33.8072 59.2946 33.3188 60.8516 33.3188C62.4086 33.3188 64.2701 33.8072 64.2701 36.285V41.3608C64.2701 43.8386 62.4086 44.327 60.8516 44.327C59.2946 44.327 57.433 43.8386 57.433 41.3608V36.285ZM59.936 41.3608C59.936 42.3089 60.3015 42.553 60.8516 42.553C61.4016 42.553 61.7671 42.3089 61.7671 41.3608V36.285C61.7671 35.337 61.4016 35.0928 60.8516 35.0928C60.3015 35.0928 59.936 35.337 59.936 36.285V41.3608Z" fill="#FC4F60"/>
<path d="M72.6914 45.857C72.8132 45.857 72.8741 45.918 72.8741 46.0401V47.446C72.8741 47.5681 72.8132 47.6291 72.6914 47.6291H64.6359C64.514 47.6291 64.4531 47.5681 64.4531 47.446V46.0401C64.4531 45.918 64.514 45.857 64.6359 45.857H72.6914ZM69.1528 33.4717C70.5252 33.4717 71.9908 34.145 71.9908 36.4684C71.9908 37.8742 71.4103 38.6391 70.6793 39.0682L72.4495 43.9304C72.48 44.022 72.48 44.0525 72.48 44.083C72.48 44.1135 72.4495 44.1746 72.3581 44.1746H70.0701C69.9787 44.1746 69.9178 44.1135 69.8874 44.022L68.4845 39.4345H68.1799V43.9915C68.1799 44.1135 68.119 44.1746 67.9971 44.1746H65.8614C65.7396 44.1746 65.6787 44.1135 65.6787 43.9915V33.6548C65.6787 33.5327 65.7396 33.4717 65.8614 33.4717H69.1528ZM69.4878 36.4684C69.4878 35.4898 69.1223 35.2456 68.5723 35.2456H68.1763V37.6624H68.5723C69.1223 37.6606 69.4878 37.4164 69.4878 36.4684Z" fill="#FC4F60"/>
<path d="M85.5648 38.1454C85.5648 38.0233 85.6257 37.9623 85.7475 37.9623H92.4306C92.5524 37.9623 92.6134 38.0233 92.6134 38.1454V48.2379C92.6134 48.3905 92.5829 48.421 92.5524 48.482C91.0868 50.256 88.281 50.9903 85.8998 50.9903C82.4508 50.9903 79.0645 49.7676 79.0645 44.997V34.5383C79.0645 29.7677 82.4526 28.5449 85.9303 28.5449C88.8902 28.5449 92.2478 29.4624 92.7352 33.4682C92.7352 33.5597 92.7047 33.6513 92.5829 33.6818L88.1269 34.7214C88.0051 34.7214 87.9442 34.6909 87.9442 34.5688C87.9442 32.7643 87.1504 32.03 85.9303 32.03C84.8015 32.03 84.0687 32.5812 84.0687 34.5383V44.997C84.0687 46.9541 84.8015 47.5053 85.8998 47.5053C86.6022 47.5053 87.12 47.3527 87.6091 47.0169V41.4509H85.7475C85.6257 41.4509 85.5648 41.3899 85.5648 41.2983V38.1454Z" fill="#FC4F60"/>
<path d="M106.775 50.2844C106.775 50.4065 106.714 50.4675 106.592 50.4675H95.2399C95.1181 50.4675 95.0571 50.4065 95.0571 50.2844V29.2466C95.0571 29.1245 95.1181 29.0635 95.2399 29.0635H106.592C106.714 29.0635 106.775 29.1245 106.775 29.2466V32.3654C106.775 32.4875 106.714 32.5485 106.592 32.5485H100.061V37.0139H105.737C105.859 37.0139 105.92 37.0749 105.92 37.197V40.3158C105.92 40.4379 105.859 40.4989 105.737 40.4989H100.061V46.9825H106.592C106.714 46.9825 106.775 47.0435 106.775 47.1656V50.2844Z" fill="#FC4F60"/>
<path d="M121.148 29.062C121.27 29.062 121.331 29.1231 121.331 29.2452V50.2847C121.331 50.4068 121.27 50.4678 121.148 50.4678H117.608C117.456 50.4678 117.395 50.3763 117.364 50.3152L112.786 40.774V50.2847C112.786 50.4068 112.725 50.4678 112.604 50.4678H109.248C109.126 50.4678 109.065 50.4068 109.065 50.2847V29.2469C109.065 29.1249 109.126 29.0638 109.248 29.0638H112.758C112.849 29.0638 112.94 29.0943 113.001 29.2164L117.61 38.7576V29.2469C117.61 29.1249 117.671 29.0638 117.792 29.0638H121.148V29.062Z" fill="#FC4F60"/>
<path d="M130.364 29.062C133.844 29.062 137.2 30.2237 137.2 34.9943V44.5355C137.2 49.3061 133.842 50.4678 130.364 50.4678H124.353C124.231 50.4678 124.17 50.4068 124.17 50.2847V29.2469C124.17 29.1249 124.231 29.0638 124.353 29.0638H130.364V29.062ZM132.195 34.9961C132.195 33.039 131.463 32.5506 130.364 32.5506H129.175V46.9846H130.364C131.463 46.9846 132.195 46.4962 132.195 44.5391V34.9961Z" fill="#FC4F60"/>
<path d="M151.451 50.2844C151.451 50.4065 151.39 50.4675 151.268 50.4675H139.916C139.794 50.4675 139.733 50.4065 139.733 50.2844V29.2466C139.733 29.1245 139.794 29.0635 139.916 29.0635H151.268C151.39 29.0635 151.451 29.1245 151.451 29.2466V32.3654C151.451 32.4875 151.39 32.5485 151.268 32.5485H144.738V37.0139H150.414C150.536 37.0139 150.597 37.0749 150.597 37.197V40.3158C150.597 40.4379 150.536 40.4989 150.414 40.4989H144.738V46.9825H151.268C151.39 46.9825 151.451 47.0435 151.451 47.1656V50.2844Z" fill="#FC4F60"/>
<path d="M160.668 29.062C163.415 29.062 166.375 30.4068 166.375 35.0248C166.375 37.8078 165.246 39.3986 163.75 40.2533L167.29 50.1608C167.321 50.2524 167.321 50.3134 167.321 50.344C167.321 50.4355 167.26 50.4661 167.138 50.4661H162.377C162.316 50.4661 162.255 50.4355 162.225 50.344L159.356 40.9859H158.745V50.2829C158.745 50.405 158.685 50.4661 158.563 50.4661H153.924C153.802 50.4661 153.741 50.405 153.741 50.2829V29.2469C153.741 29.1249 153.802 29.0638 153.924 29.0638H160.668V29.062ZM161.37 35.0266C161.37 33.1001 160.637 32.5489 159.539 32.5489H158.745V37.5026H159.539C160.637 37.5026 161.37 36.9532 161.37 35.0266Z" fill="#FC4F60"/>
<path d="M178.008 32.7783C178.146 32.7783 178.214 32.8466 178.214 32.9848V37.4502H182.67C182.808 37.4502 182.876 37.5184 182.876 37.6567V39.9926C182.876 40.129 182.808 40.1991 182.67 40.1991H178.214V44.6645C178.214 44.8009 178.146 44.8709 178.008 44.8709H175.677C175.539 44.8709 175.471 44.8027 175.471 44.6645V40.1991H171.015C170.878 40.1991 170.809 40.1308 170.809 39.9926V37.6567C170.809 37.5184 170.877 37.4502 171.015 37.4502H175.471V32.9848C175.471 32.8466 175.539 32.7783 175.677 32.7783H178.008Z" fill="#FC4F60"/>
<path d="M189.638 50.3921C192.384 50.3921 195.344 51.7369 195.344 56.3549C195.344 59.1379 194.215 60.7287 192.719 61.5834L196.26 71.4909C196.29 71.5824 196.29 71.6435 196.29 71.674C196.29 71.7656 196.229 71.7961 196.108 71.7961H191.347C191.286 71.7961 191.225 71.7656 191.195 71.674L188.326 62.3159H187.715V71.613C187.715 71.7351 187.654 71.7961 187.532 71.7961H182.894C182.772 71.7961 182.711 71.7351 182.711 71.613V50.5752C182.711 50.4531 182.772 50.3921 182.894 50.3921H189.638ZM190.34 56.3549C190.34 54.4283 189.607 53.8771 188.509 53.8771H187.715V58.8309H188.509C189.607 58.8309 190.34 58.2815 190.34 56.3549Z" fill="#FC4F60"/>
<path d="M209.657 71.6148C209.657 71.7368 209.596 71.7979 209.474 71.7979H198.122C198 71.7979 197.939 71.7368 197.939 71.6148V50.5752C197.939 50.4531 198 50.3921 198.122 50.3921H209.474C209.596 50.3921 209.657 50.4531 209.657 50.5752V53.694C209.657 53.8161 209.596 53.8771 209.474 53.8771H202.943V58.3425H208.619C208.741 58.3425 208.802 58.4036 208.802 58.5256V61.6444C208.802 61.7665 208.741 61.8276 208.619 61.8276H202.943V68.3111H209.474C209.596 68.3111 209.657 68.3721 209.657 68.4942V71.6148Z" fill="#FC4F60"/>
<path d="M218.873 50.3921C221.62 50.3921 224.58 51.7369 224.58 56.3549C224.58 60.9729 221.62 62.3177 218.873 62.3177H216.951V71.6148C216.951 71.7368 216.89 71.7979 216.768 71.7979H212.129C212.007 71.7979 211.946 71.7368 211.946 71.6148V50.5752C211.946 50.4531 212.007 50.3921 212.129 50.3921H218.873ZM219.575 56.3549C219.575 54.4283 218.843 53.8771 217.744 53.8771H216.951V58.8309H217.744C218.843 58.8309 219.575 58.2815 219.575 56.3549Z" fill="#FC4F60"/>
<path d="M233.553 50.3921C236.299 50.3921 239.259 51.7369 239.259 56.3549C239.259 59.1379 238.131 60.7287 236.634 61.5834L240.175 71.4909C240.205 71.5824 240.205 71.6435 240.205 71.674C240.205 71.7656 240.144 71.7961 240.023 71.7961H235.262C235.201 71.7961 235.14 71.7656 235.11 71.674L232.241 62.3159H231.63V71.613C231.63 71.7351 231.569 71.7961 231.447 71.7961H226.809C226.687 71.7961 226.626 71.7351 226.626 71.613V50.5752C226.626 50.4531 226.687 50.3921 226.809 50.3921H233.553ZM234.253 56.3549C234.253 54.4283 233.52 53.8771 232.422 53.8771H231.628V58.8309H232.422C233.522 58.8309 234.253 58.2815 234.253 56.3549Z" fill="#FC4F60"/>
<path d="M255.005 66.3847C255.005 71.2469 251.282 72.317 248.169 72.317C245.057 72.317 241.334 71.2469 241.334 66.3847V55.8039C241.334 50.9417 245.057 49.8716 248.169 49.8716C251.282 49.8716 255.005 50.9417 255.005 55.8039V66.3847ZM248.169 53.3584C247.071 53.3584 246.338 53.8486 246.338 55.8057V66.3865C246.338 68.3436 247.071 68.8337 248.169 68.8337C249.268 68.8337 250 68.3436 250 66.3865V55.8039C250 53.8468 249.268 53.3584 248.169 53.3584Z" fill="#FC4F60"/>
<path d="M263.549 50.3921C267.029 50.3921 270.385 51.5538 270.385 56.3244V65.8656C270.385 70.6362 267.027 71.7979 263.549 71.7979H257.538C257.416 71.7979 257.355 71.7368 257.355 71.6148V50.5752C257.355 50.4531 257.416 50.3921 257.538 50.3921H263.549ZM265.381 56.3244C265.381 54.3673 264.648 53.8771 263.549 53.8771H262.36V68.3111H263.549C264.648 68.3111 265.381 67.8209 265.381 65.8638V56.3244Z" fill="#FC4F60"/>
<path d="M272.827 66.9052V50.5752C272.827 50.4531 272.888 50.3921 273.009 50.3921H277.648C277.77 50.3921 277.831 50.4531 277.831 50.5752V66.354C277.831 68.3111 278.533 68.8318 279.632 68.8318C280.73 68.8318 281.463 68.3111 281.463 66.354V50.5752C281.463 50.4531 281.524 50.3921 281.645 50.3921H285.125C285.247 50.3921 285.308 50.4531 285.308 50.5752V66.9052C285.308 71.1856 282.287 72.3186 279.082 72.3186C275.787 72.3186 272.827 71.1856 272.827 66.9052Z" fill="#FC4F60"/>
<path d="M292.571 66.3236C292.571 68.2807 293.304 68.8319 294.402 68.8319C295.622 68.8319 296.416 68.0976 296.416 66.2931C296.416 66.171 296.477 66.1405 296.599 66.1405L301.055 67.1801C301.177 67.2106 301.207 67.3022 301.207 67.3937C300.718 71.3995 297.362 72.317 294.402 72.317C290.953 72.317 287.567 71.0942 287.567 66.3236V55.8649C287.567 51.0943 290.955 49.8716 294.402 49.8716C297.362 49.8716 300.72 50.7891 301.207 54.7948C301.207 54.8864 301.177 54.9779 301.055 55.0085L296.599 56.0481C296.477 56.0481 296.416 56.0175 296.416 55.8954C296.416 54.091 295.622 53.3566 294.402 53.3566C293.304 53.3566 292.571 53.9078 292.571 55.8649V66.3236Z" fill="#FC4F60"/>
<path d="M312.314 53.8771V71.6148C312.314 71.7368 312.253 71.7979 312.131 71.7979H307.492C307.371 71.7979 307.31 71.7368 307.31 71.6148V53.8771H302.762C302.641 53.8771 302.58 53.8161 302.58 53.694V50.5752C302.58 50.4531 302.641 50.3921 302.762 50.3921H316.861C316.983 50.3921 317.044 50.4531 317.044 50.5752V53.694C317.044 53.8161 316.983 53.8771 316.861 53.8771H312.314Z" fill="#FC4F60"/>
<path d="M323.942 71.6148C323.942 71.7368 323.881 71.7979 323.76 71.7979H319.121C318.999 71.7979 318.938 71.7368 318.938 71.6148V50.5752C318.938 50.4531 318.999 50.3921 319.121 50.3921H323.76C323.881 50.3921 323.942 50.4531 323.942 50.5752V71.6148Z" fill="#FC4F60"/>
<path d="M340.603 50.3921C340.756 50.3921 340.786 50.4837 340.786 50.6058L335.171 71.6758C335.141 71.7674 335.08 71.7979 334.988 71.7979H331.417C331.356 71.7979 331.296 71.7674 331.265 71.6758L325.65 50.5752C325.65 50.4226 325.711 50.3921 325.833 50.3921H330.593C330.685 50.3921 330.715 50.4226 330.746 50.5142L333.919 62.7774L337.061 50.5142C337.092 50.4226 337.122 50.3921 337.214 50.3921H340.603Z" fill="#FC4F60"/>
<path d="M354 71.6148C354 71.7368 353.939 71.7979 353.817 71.7979H342.465C342.343 71.7979 342.282 71.7368 342.282 71.6148V50.5752C342.282 50.4531 342.343 50.3921 342.465 50.3921H353.817C353.939 50.3921 354 50.4531 354 50.5752V53.694C354 53.8161 353.939 53.8771 353.817 53.8771H347.286V58.3425H352.963C353.084 58.3425 353.145 58.4036 353.145 58.5256V61.6444C353.145 61.7665 353.084 61.8276 352.963 61.8276H347.286V68.3111H353.817C353.939 68.3111 354 68.3721 354 68.4942V71.6148Z" fill="#FC4F60"/>
<path d="M194.429 100.158C194.429 100.28 194.368 100.341 194.246 100.341H182.894C182.772 100.341 182.711 100.28 182.711 100.158V79.1182C182.711 78.9961 182.772 78.9351 182.894 78.9351H194.246C194.368 78.9351 194.429 78.9961 194.429 79.1182V82.237C194.429 82.3591 194.368 82.4201 194.246 82.4201H187.715V86.8855H193.391C193.513 86.8855 193.574 86.9465 193.574 87.0686V90.1874C193.574 90.3095 193.513 90.3705 193.391 90.3705H187.715V96.854H194.246C194.368 96.854 194.429 96.9151 194.429 97.0372V100.158Z" fill="#FC4F60"/>
<path d="M209.932 94.9277C209.932 97.19 209.108 98.6587 207.919 99.5762L209.963 102.725C209.993 102.787 210.024 102.848 210.024 102.878C210.024 102.97 209.963 103 209.841 103H205.935C205.844 103 205.813 102.97 205.752 102.878L204.624 100.768C204.104 100.829 203.586 100.86 203.097 100.86C199.985 100.86 196.262 99.7593 196.262 94.9277V84.3468C196.262 79.4847 199.985 78.4146 203.097 78.4146C206.209 78.4146 209.932 79.4847 209.932 84.3468V94.9277ZM201.266 94.9277C201.266 96.8848 201.999 97.3749 203.097 97.3749C204.195 97.3749 204.928 96.8848 204.928 94.9277V84.3468C204.928 82.3898 204.195 81.8996 203.097 81.8996C201.999 81.8996 201.266 82.3898 201.266 84.3468V94.9277Z" fill="#FC4F60"/>
<path d="M211.886 95.4482V79.1182C211.886 78.9961 211.947 78.9351 212.068 78.9351H216.707C216.829 78.9351 216.89 78.9961 216.89 79.1182V94.897C216.89 96.854 217.592 97.3747 218.691 97.3747C219.789 97.3747 220.522 96.854 220.522 94.897V79.1182C220.522 78.9961 220.583 78.9351 220.705 78.9351H224.184C224.306 78.9351 224.367 78.9961 224.367 79.1182V95.4482C224.367 99.7286 221.346 100.862 218.141 100.862C214.846 100.86 211.886 99.7286 211.886 95.4482Z" fill="#FC4F60"/>
<path d="M231.722 100.158C231.722 100.28 231.661 100.341 231.539 100.341H226.9C226.778 100.341 226.717 100.28 226.717 100.158V79.1182C226.717 78.9961 226.778 78.9351 226.9 78.9351H231.539C231.661 78.9351 231.722 78.9961 231.722 79.1182V100.158Z" fill="#FC4F60"/>
<path d="M243.5 82.4201V100.158C243.5 100.28 243.439 100.341 243.317 100.341H238.678C238.557 100.341 238.496 100.28 238.496 100.158V82.4201H233.948C233.827 82.4201 233.766 82.3591 233.766 82.237V79.1182C233.766 78.9961 233.827 78.9351 233.948 78.9351H248.047C248.169 78.9351 248.23 78.9961 248.23 79.1182V82.237C248.23 82.3591 248.169 82.4201 248.047 82.4201H243.5Z" fill="#FC4F60"/>
<path d="M264.404 78.9331C264.556 78.9331 264.617 78.9942 264.617 79.0552C264.617 79.1162 264.587 79.1773 264.587 79.1773L259.521 91.3794V100.156C259.521 100.278 259.46 100.339 259.339 100.339H254.7C254.578 100.339 254.517 100.278 254.517 100.156V91.3794L249.422 79.1773C249.422 79.1773 249.391 79.1162 249.391 79.0552C249.391 78.9636 249.452 78.9331 249.574 78.9331H254.304C254.426 78.9331 254.487 78.9636 254.517 79.0552L257.629 87.1277L260.833 79.0552C260.863 78.9636 260.924 78.9331 261.016 78.9331H264.404Z" fill="#FC4F60"/>
</g>
<defs>
<clipPath id="clip0">
<rect width="354" height="103" fill="white"/>
</clipPath>
</defs>
</svg>
