<svg width="180" height="108" viewBox="0 0 180 108" fill="none" xmlns="http://www.w3.org/2000/svg">
<path d="M6.20873 16.0214C6.20873 17.9272 6.92543 18.464 7.99961 18.464C9.19295 18.464 9.96924 17.7489 9.96924 15.9917C9.96924 15.8728 10.0288 15.843 10.148 15.843L14.506 16.8554C14.6252 16.8851 14.655 16.9743 14.655 17.0635C14.1766 20.9644 10.8945 21.8578 7.99961 21.8578C4.62637 21.8578 1.31445 20.6671 1.31445 16.0214V5.83645C1.3127 1.19072 4.62637 0 7.99961 0C10.8945 0 14.1766 0.893477 14.655 4.79435C14.655 4.88352 14.6252 4.9727 14.506 5.00242L10.148 6.01479C10.0288 6.01479 9.96924 5.98507 9.96924 5.86617C9.96924 4.10894 9.19295 3.39381 7.99961 3.39381C6.92543 3.39381 6.20873 3.9306 6.20873 5.83645V16.0214Z" fill="#DEE2DF"/>
<path d="M29.1887 16.0808C29.1887 20.8157 25.5473 21.8578 22.5035 21.8578C19.4597 21.8578 15.8184 20.8157 15.8184 16.0808V5.777C15.8184 1.0421 19.4597 0 22.5035 0C25.5473 0 29.1887 1.0421 29.1887 5.777V16.0808ZM22.5035 3.39556C21.4293 3.39556 20.7126 3.8729 20.7126 5.77875V16.0826C20.7126 17.9884 21.4293 18.4658 22.5035 18.4658C23.5777 18.4658 24.2944 17.9884 24.2944 16.0826V5.777C24.2944 3.87115 23.5777 3.39556 22.5035 3.39556Z" fill="#DEE2DF"/>
<path d="M35.7849 17.9572H42.1722C42.2913 17.9572 42.3509 18.0167 42.3509 18.1356V21.1727C42.3509 21.2916 42.2913 21.351 42.1722 21.351H31.0694C30.9502 21.351 30.8906 21.2916 30.8906 21.1727V0.68567C30.8906 0.566773 30.9502 0.507324 31.0694 0.507324H35.6062C35.7253 0.507324 35.7849 0.566773 35.7849 0.68567V17.9572Z" fill="#DEE2DF"/>
<path d="M48.6482 17.9572H55.0354C55.1546 17.9572 55.2142 18.0167 55.2142 18.1356V21.1727C55.2142 21.2916 55.1546 21.351 55.0354 21.351H43.9326C43.8135 21.351 43.7539 21.2916 43.7539 21.1727V0.68567C43.7539 0.566773 43.8135 0.507324 43.9326 0.507324H48.4694C48.5886 0.507324 48.6482 0.566773 48.6482 0.68567V17.9572Z" fill="#DEE2DF"/>
<path d="M59.9892 21.2339C59.9594 21.3231 59.9296 21.3528 59.8105 21.3528H56.5581C56.4688 21.3528 56.3496 21.3528 56.3496 21.1744L61.8397 0.626221C61.8695 0.537048 61.8993 0.507324 61.9886 0.507324H65.481C65.5704 0.507324 65.63 0.537048 65.6598 0.626221L71.1218 21.1744C71.1218 21.3528 71.0324 21.3528 70.9431 21.3528H66.3169C66.2275 21.3528 66.1679 21.3231 66.1382 21.2339L65.4512 18.7021H60.6761L59.9892 21.2339ZM63.0646 9.44034L61.5716 15.3065H64.5558L63.0646 9.44034Z" fill="#DEE2DF"/>
<path d="M85.3302 14.5931V16.1423C85.3302 19.954 83.1222 21.3545 79.0323 21.3545H72.7642C72.645 21.3545 72.5854 21.2951 72.5854 21.1762V0.68567C72.5854 0.566773 72.645 0.507324 72.7642 0.507324H79.1515C82.3442 0.507324 84.4943 2.11593 84.4943 5.53947C84.4943 7.77229 83.5393 9.08365 82.3162 9.79878C84.0159 10.3933 85.3302 11.7344 85.3302 14.5931ZM78.2858 8.24962C79.2706 8.24962 79.898 7.80376 79.898 6.07625C79.898 4.34875 79.2706 3.90289 78.2858 3.90289H77.4797V8.25137H78.2858V8.24962ZM77.4797 17.9572H78.6731C79.7472 17.9572 80.4342 17.4204 80.4342 15.5443V14.0546C80.4342 12.1785 79.7472 11.6417 78.6731 11.6417H77.4797V17.9572Z" fill="#DEE2DF"/>
<path d="M100.581 16.0808C100.581 20.8157 96.9394 21.8578 93.8956 21.8578C90.8518 21.8578 87.2104 20.8157 87.2104 16.0808V5.777C87.2104 1.0421 90.8518 0 93.8956 0C96.9394 0 100.581 1.0421 100.581 5.777V16.0808ZM93.8956 3.39556C92.8214 3.39556 92.1047 3.8729 92.1047 5.77875V16.0826C92.1047 17.9884 92.8214 18.4658 93.8956 18.4658C94.9698 18.4658 95.6865 17.9884 95.6865 16.0826V5.777C95.6865 3.87115 94.9698 3.39556 93.8956 3.39556Z" fill="#DEE2DF"/>
<path d="M109.057 0.507324C111.743 0.507324 114.638 1.81694 114.638 6.31405C114.638 9.0242 113.534 10.5734 112.071 11.4056L115.533 21.0538C115.563 21.143 115.563 21.2024 115.563 21.2321C115.563 21.3213 115.504 21.351 115.384 21.351H110.728C110.669 21.351 110.609 21.3213 110.58 21.2321L107.774 12.119H107.176V21.1727C107.176 21.2916 107.117 21.351 106.998 21.351H102.461C102.342 21.351 102.282 21.2916 102.282 21.1727V0.68567C102.282 0.566773 102.342 0.507324 102.461 0.507324H109.057ZM109.744 6.31405C109.744 4.43792 109.027 3.90114 107.953 3.90114H107.176V8.72521H107.953C109.027 8.72521 109.744 8.19017 109.744 6.31405Z" fill="#DEE2DF"/>
<path d="M120.159 21.2339C120.129 21.3231 120.1 21.3528 119.98 21.3528H116.728C116.639 21.3528 116.52 21.3528 116.52 21.1744L122.01 0.626221C122.039 0.537048 122.069 0.507324 122.159 0.507324H125.651C125.74 0.507324 125.8 0.537048 125.83 0.626221L131.292 21.1744C131.292 21.3528 131.202 21.3528 131.113 21.3528H126.487C126.397 21.3528 126.338 21.3231 126.308 21.2339L125.621 18.7021H120.846L120.159 21.2339ZM123.233 9.44034L121.74 15.3065H124.724L123.233 9.44034Z" fill="#DEE2DF"/>
<path d="M139.23 3.90114V21.1727C139.23 21.2916 139.17 21.351 139.051 21.351H134.514C134.395 21.351 134.336 21.2916 134.336 21.1727V3.90114H129.888C129.769 3.90114 129.709 3.84169 129.709 3.72279V0.68567C129.709 0.566773 129.769 0.507324 129.888 0.507324H143.677C143.796 0.507324 143.856 0.566773 143.856 0.68567V3.72279C143.856 3.84169 143.796 3.90114 143.677 3.90114H139.23Z" fill="#DEE2DF"/>
<path d="M150.603 21.1744C150.603 21.2933 150.543 21.3528 150.424 21.3528H145.887C145.768 21.3528 145.708 21.2933 145.708 21.1744V0.68567C145.708 0.566773 145.768 0.507324 145.887 0.507324H150.424C150.543 0.507324 150.603 0.566773 150.603 0.68567V21.1744Z" fill="#DEE2DF"/>
<path d="M166.898 0.507324C167.047 0.507324 167.077 0.596497 167.077 0.715394L161.585 21.2339C161.555 21.3231 161.496 21.3528 161.406 21.3528H157.914C157.854 21.3528 157.795 21.3231 157.765 21.2339L152.273 0.68567C152.273 0.537048 152.333 0.507324 152.452 0.507324H157.108C157.197 0.507324 157.227 0.537048 157.257 0.626221L160.36 12.5684L163.434 0.626221C163.463 0.537048 163.493 0.507324 163.583 0.507324H166.898Z" fill="#DEE2DF"/>
<path d="M180 21.1744C180 21.2933 179.94 21.3528 179.821 21.3528H168.718C168.599 21.3528 168.54 21.2933 168.54 21.1744V0.68567C168.54 0.566773 168.599 0.507324 168.718 0.507324H179.821C179.94 0.507324 180 0.566773 180 0.68567V3.72279C180 3.84169 179.94 3.90114 179.821 3.90114H173.434V8.24962H178.985C179.104 8.24962 179.164 8.30907 179.164 8.42797V11.4651C179.164 11.584 179.104 11.6434 178.985 11.6434H173.434V17.9572H179.821C179.94 17.9572 180 18.0167 180 18.1356V21.1744Z" fill="#DEE2DF"/>
<path d="M7.52102 44.6564C7.64018 44.6564 7.69976 44.7158 7.69976 44.8347V46.2038C7.69976 46.3227 7.64018 46.3821 7.52102 46.3821H0.178738C0.0595794 46.3821 0 46.3227 0 46.2038V44.8347C0 44.7158 0.0595794 44.6564 0.178738 44.6564H7.52102ZM6.74474 32.5953C6.8639 32.5953 6.92348 32.6547 6.92348 32.7736V34.1427C6.92348 34.2616 6.8639 34.321 6.74474 34.321H3.64135V36.435H6.35747C6.47663 36.435 6.53621 36.4944 6.53621 36.6133V37.9824C6.53621 38.1013 6.47663 38.1607 6.35747 38.1607H3.64135V42.8362C3.64135 42.9551 3.58177 43.0145 3.46261 43.0145H1.37208C1.25292 43.0145 1.19334 42.9551 1.19334 42.8362V32.7701C1.19334 32.6512 1.25292 32.5918 1.37208 32.5918H6.74474V32.5953Z" fill="#DEE2DF"/>
<path d="M15.1914 44.6565C15.3105 44.6565 15.3701 44.7159 15.3701 44.8348V46.2039C15.3701 46.3228 15.3105 46.3822 15.1914 46.3822H7.01321C6.89405 46.3822 6.83447 46.3228 6.83447 46.2039V44.8348C6.83447 44.7159 6.89405 44.6565 7.01321 44.6565H15.1914ZM7.75971 35.3353C7.75971 32.9224 9.58038 32.4468 11.1032 32.4468C12.6259 32.4468 14.4466 32.9241 14.4466 35.3353V40.2782C14.4466 42.6912 12.6259 43.1667 11.1032 43.1667C9.58038 43.1667 7.75971 42.6894 7.75971 40.2782V35.3353ZM10.2077 40.2782C10.2077 41.2015 10.5652 41.4392 11.1032 41.4392C11.6411 41.4392 11.9986 41.2015 11.9986 40.2782V35.3353C11.9986 34.4121 11.6411 34.1743 11.1032 34.1743C10.5652 34.1743 10.2077 34.4121 10.2077 35.3353V40.2782Z" fill="#DEE2DF"/>
<path d="M22.6822 44.6563C22.8014 44.6563 22.861 44.7157 22.861 44.8346V46.2037C22.861 46.3226 22.8014 46.382 22.6822 46.382H14.8037C14.6846 46.382 14.625 46.3226 14.625 46.2037V44.8346C14.625 44.7157 14.6846 44.6563 14.8037 44.6563H22.6822ZM19.2214 32.5952C20.5637 32.5952 21.9971 33.2509 21.9971 35.5134C21.9971 36.8825 21.4293 37.6274 20.7144 38.0453L22.4457 42.7802C22.4755 42.8693 22.4755 42.8991 22.4755 42.9288C22.4755 42.9585 22.4457 43.018 22.3563 43.018H20.1186C20.0292 43.018 19.9696 42.9585 19.9398 42.8693L18.5677 38.4019H18.2699V42.8396C18.2699 42.9585 18.2103 43.018 18.0911 43.018H15.9971C15.8779 43.018 15.8183 42.9585 15.8183 42.8396V32.7736C15.8183 32.6547 15.8779 32.5952 15.9971 32.5952H19.2214ZM19.5491 35.5134C19.5491 34.5605 19.1916 34.3227 18.6536 34.3227H18.2663V36.6762H18.6536C19.1898 36.6744 19.5491 36.4366 19.5491 35.5134Z" fill="#DEE2DF"/>
<path d="M35.7247 37.1465C35.7247 37.0276 35.7842 36.9682 35.9034 36.9682H42.4396C42.5588 36.9682 42.6183 37.0276 42.6183 37.1465V46.9748C42.6183 47.1234 42.5886 47.1531 42.5588 47.2125C41.1254 48.9401 38.3812 49.6552 36.0523 49.6552C32.6791 49.6552 29.3672 48.4645 29.3672 43.8187V33.6338C29.3672 28.9881 32.6809 27.7974 36.0821 27.7974C38.977 27.7974 42.2609 28.6908 42.7375 32.5917C42.7375 32.6809 42.7077 32.7701 42.5886 32.7998L38.2305 33.8122C38.1113 33.8122 38.0518 33.7824 38.0518 33.6635C38.0518 31.9063 37.2755 31.1912 36.0821 31.1912C34.9782 31.1912 34.2615 31.728 34.2615 33.6338V43.8187C34.2615 45.7246 34.9782 46.2614 36.0523 46.2614C36.7393 46.2614 37.2457 46.1128 37.7241 45.784V40.3637H35.9034C35.7842 40.3637 35.7247 40.3043 35.7247 40.2151V37.1465Z" fill="#DEE2DF"/>
<path d="M56.4676 48.9681C56.4676 49.087 56.408 49.1464 56.2888 49.1464H45.1861C45.0669 49.1464 45.0073 49.087 45.0073 48.9681V28.4811C45.0073 28.3622 45.0669 28.3027 45.1861 28.3027H56.2888C56.408 28.3027 56.4676 28.3622 56.4676 28.4811V31.5182C56.4676 31.6371 56.408 31.6965 56.2888 31.6965H49.9016V36.045H55.453C55.5721 36.045 55.6317 36.1045 55.6317 36.2234V39.2605C55.6317 39.3794 55.5721 39.4388 55.453 39.4388H49.9016V45.7526H56.2888C56.408 45.7526 56.4676 45.8121 56.4676 45.931V48.9681Z" fill="#DEE2DF"/>
<path d="M70.525 28.3013C70.6441 28.3013 70.7037 28.3607 70.7037 28.4796V48.9684C70.7037 49.0873 70.6441 49.1467 70.525 49.1467H67.0624C66.9134 49.1467 66.8538 49.0576 66.8241 48.9981L62.3486 39.7084V48.9701C62.3486 49.089 62.289 49.1485 62.1698 49.1485H58.8877C58.7686 49.1485 58.709 49.089 58.709 48.9701V28.4814C58.709 28.3625 58.7686 28.303 58.8877 28.303H62.3206C62.4099 28.303 62.4993 28.3327 62.5589 28.4516L67.0659 37.7431V28.4814C67.0659 28.3625 67.1255 28.303 67.2446 28.303H70.525V28.3013Z" fill="#DEE2DF"/>
<path d="M79.5383 28.3013C82.9413 28.3013 86.2234 29.4325 86.2234 34.0783V43.3697C86.2234 48.0155 82.9396 49.1467 79.5383 49.1467H73.6592C73.5401 49.1467 73.4805 49.0873 73.4805 48.9684V28.4814C73.4805 28.3625 73.5401 28.303 73.6592 28.303H79.5383V28.3013ZM81.3292 34.08C81.3292 32.1742 80.6125 31.6968 79.5383 31.6968H78.3747V45.7529H79.5383C80.6125 45.7529 81.3292 45.2756 81.3292 43.3697V34.08Z" fill="#DEE2DF"/>
<path d="M100.163 48.9681C100.163 49.087 100.104 49.1464 99.9847 49.1464H88.8819C88.7627 49.1464 88.7031 49.087 88.7031 48.9681V28.4811C88.7031 28.3622 88.7627 28.3027 88.8819 28.3027H99.9847C100.104 28.3027 100.163 28.3622 100.163 28.4811V31.5182C100.163 31.6371 100.104 31.6965 99.9847 31.6965H93.5974V36.045H99.1488C99.268 36.045 99.3275 36.1045 99.3275 36.2234V39.2605C99.3275 39.3794 99.268 39.4388 99.1488 39.4388H93.5974V45.7526H99.9847C100.104 45.7526 100.163 45.8121 100.163 45.931V48.9681Z" fill="#DEE2DF"/>
<path d="M109.176 28.3013C111.862 28.3013 114.757 29.6109 114.757 34.108C114.757 36.8181 113.653 38.3673 112.19 39.1996L115.653 48.8477C115.682 48.9369 115.682 48.9964 115.682 49.0261C115.682 49.1153 115.623 49.145 115.504 49.145H110.848C110.788 49.145 110.728 49.1153 110.699 49.0261L107.893 39.913H107.296V48.9666C107.296 49.0855 107.236 49.145 107.117 49.145H102.58C102.461 49.145 102.401 49.0855 102.401 48.9666V28.4814C102.401 28.3625 102.461 28.303 102.58 28.303H109.176V28.3013ZM109.863 34.1097C109.863 32.2336 109.146 31.6968 108.072 31.6968H107.296V36.5209H108.072C109.146 36.5209 109.863 35.9859 109.863 34.1097Z" fill="#DEE2DF"/>
<path d="M126.755 33.417C126.867 33.417 126.923 33.4729 126.923 33.5848V37.2217H130.568C130.68 37.2217 130.736 37.2776 130.736 37.3895V39.2919C130.736 39.4038 130.68 39.4598 130.568 39.4598H126.923V43.0966C126.923 43.2085 126.867 43.2645 126.755 43.2645H124.848C124.736 43.2645 124.68 43.2085 124.68 43.0966V39.4598H121.035C120.923 39.4598 120.867 39.4038 120.867 39.2919V37.3895C120.867 37.2776 120.923 37.2217 121.035 37.2217H124.68V33.5848C124.68 33.4729 124.736 33.417 124.848 33.417H126.755Z" fill="#DEE2DF"/>
<path d="M8.4464 56.0967C11.1327 56.0967 14.0276 57.4063 14.0276 61.9034C14.0276 64.6136 12.9236 66.1627 11.4604 66.995L14.923 76.6432C14.9528 76.7323 14.9528 76.7918 14.9528 76.8215C14.9528 76.9107 14.8932 76.9404 14.7741 76.9404H10.1181C10.0586 76.9404 9.99897 76.9107 9.96918 76.8215L7.16369 67.7084H6.56615V76.762C6.56615 76.8809 6.50657 76.9404 6.38741 76.9404H1.85061C1.73145 76.9404 1.67188 76.8809 1.67188 76.762V56.275C1.67188 56.1561 1.73145 56.0967 1.85061 56.0967H8.4464ZM9.13332 61.9034C9.13332 60.0273 8.41661 59.4905 7.34243 59.4905H6.56615V64.3146H7.34243C8.41661 64.3163 9.13332 63.7795 9.13332 61.9034Z" fill="#DEE2DF"/>
<path d="M28.0252 76.7638C28.0252 76.8827 27.9656 76.9421 27.8465 76.9421H16.7437C16.6245 76.9421 16.5649 76.8827 16.5649 76.7638V56.275C16.5649 56.1561 16.6245 56.0967 16.7437 56.0967H27.8465C27.9656 56.0967 28.0252 56.1561 28.0252 56.275V59.3121C28.0252 59.431 27.9656 59.4905 27.8465 59.4905H21.4592V63.839H27.0106C27.1298 63.839 27.1893 63.8984 27.1893 64.0173V67.0544C27.1893 67.1733 27.1298 67.2328 27.0106 67.2328H21.4592V73.5466H27.8465C27.9656 73.5466 28.0252 73.606 28.0252 73.7249V76.7638Z" fill="#DEE2DF"/>
<path d="M37.0392 56.0967C39.7255 56.0967 42.6204 57.4063 42.6204 61.9034C42.6204 66.4005 39.7255 67.7101 37.0392 67.7101H35.1589V76.7638C35.1589 76.8827 35.0993 76.9421 34.9802 76.9421H30.4434C30.3242 76.9421 30.2646 76.8827 30.2646 76.7638V56.275C30.2646 56.1561 30.3242 56.0967 30.4434 56.0967H37.0392ZM37.7243 61.9034C37.7243 60.0273 37.0076 59.4905 35.9335 59.4905H35.1572V64.3146H35.9335C37.0094 64.3163 37.7243 63.7795 37.7243 61.9034Z" fill="#DEE2DF"/>
<path d="M51.3942 56.0967C54.0805 56.0967 56.9753 57.4063 56.9753 61.9034C56.9753 64.6136 55.8714 66.1627 54.4082 66.995L57.8708 76.6432C57.9006 76.7323 57.9006 76.7918 57.9006 76.8215C57.9006 76.9107 57.841 76.9404 57.7218 76.9404H53.0659C53.0063 76.9404 52.9467 76.9107 52.9169 76.8215L50.1114 67.7084H49.5139V76.762C49.5139 76.8809 49.4543 76.9404 49.3352 76.9404H44.7984C44.6792 76.9404 44.6196 76.8809 44.6196 76.762V56.275C44.6196 56.1561 44.6792 56.0967 44.7984 56.0967H51.3942ZM52.0811 61.9034C52.0811 60.0273 51.3644 59.4905 50.2902 59.4905H49.5139V64.3146H50.2902C51.3644 64.3163 52.0811 63.7795 52.0811 61.9034Z" fill="#DEE2DF"/>
<path d="M72.3772 71.6721C72.3772 76.407 68.7358 77.4491 65.692 77.4491C62.6482 77.4491 59.0068 76.407 59.0068 71.6721V61.3683C59.0068 56.6334 62.6482 55.5913 65.692 55.5913C68.7358 55.5913 72.3772 56.6334 72.3772 61.3683V71.6721ZM65.692 58.9851C64.6178 58.9851 63.9011 59.4625 63.9011 61.3683V71.6721C63.9011 73.578 64.6178 74.0553 65.692 74.0553C66.7662 74.0553 67.4829 73.578 67.4829 71.6721V61.3683C67.4829 59.4625 66.7662 58.9851 65.692 58.9851Z" fill="#DEE2DF"/>
<path d="M80.7336 56.0967C84.1367 56.0967 87.4188 57.228 87.4188 61.8737V71.1651C87.4188 75.8109 84.1349 76.9421 80.7336 76.9421H74.8545C74.7354 76.9421 74.6758 76.8827 74.6758 76.7638V56.275C74.6758 56.1561 74.7354 56.0967 74.8545 56.0967H80.7336ZM82.5245 61.8737C82.5245 59.9678 81.8078 59.4905 80.7336 59.4905H79.5701V73.5466H80.7336C81.8078 73.5466 82.5245 73.0692 82.5245 71.1634V61.8737Z" fill="#DEE2DF"/>
<path d="M89.8071 72.1775V56.275C89.8071 56.1561 89.8667 56.0967 89.9859 56.0967H94.5227C94.6418 56.0967 94.7014 56.1561 94.7014 56.275V71.6407C94.7014 73.5466 95.3883 74.0536 96.4625 74.0536C97.5367 74.0536 98.2534 73.5466 98.2534 71.6407V56.275C98.2534 56.1561 98.313 56.0967 98.4321 56.0967H101.835C101.954 56.0967 102.014 56.1561 102.014 56.275V72.1775C102.014 76.3459 99.0595 77.4492 95.9245 77.4492C92.702 77.4492 89.8071 76.3476 89.8071 72.1775Z" fill="#DEE2DF"/>
<path d="M109.116 71.6127C109.116 73.5185 109.833 74.0553 110.907 74.0553C112.101 74.0553 112.877 73.3402 112.877 71.583C112.877 71.4641 112.937 71.4343 113.056 71.4343L117.414 72.4467C117.533 72.4764 117.563 72.5656 117.563 72.6548C117.084 76.5557 113.802 77.4491 110.907 77.4491C107.534 77.4491 104.222 76.2584 104.222 71.6127V61.4278C104.222 56.782 107.536 55.5913 110.907 55.5913C113.802 55.5913 117.086 56.4848 117.563 60.3857C117.563 60.4748 117.533 60.564 117.414 60.5937L113.056 61.6061C112.937 61.6061 112.877 61.5764 112.877 61.4575C112.877 59.7003 112.101 58.9851 110.907 58.9851C109.833 58.9851 109.116 59.5219 109.116 61.4278V71.6127Z" fill="#DEE2DF"/>
<path d="M128.427 59.4924V76.764C128.427 76.8829 128.367 76.9423 128.248 76.9423H123.711C123.592 76.9423 123.532 76.8829 123.532 76.764V59.4924H119.085C118.966 59.4924 118.906 59.433 118.906 59.3141V56.277C118.906 56.1581 118.966 56.0986 119.085 56.0986H132.874C132.993 56.0986 133.053 56.1581 133.053 56.277V59.3141C133.053 59.433 132.993 59.4924 132.874 59.4924H128.427Z" fill="#DEE2DF"/>
<path d="M139.798 76.7638C139.798 76.8827 139.738 76.9421 139.619 76.9421H135.082C134.963 76.9421 134.903 76.8827 134.903 76.7638V56.275C134.903 56.1561 134.963 56.0967 135.082 56.0967H139.619C139.738 56.0967 139.798 56.1561 139.798 56.275V76.7638Z" fill="#DEE2DF"/>
<path d="M156.095 56.0967C156.244 56.0967 156.273 56.1859 156.273 56.3048L150.782 76.8232C150.752 76.9124 150.692 76.9421 150.603 76.9421H147.11C147.051 76.9421 146.991 76.9124 146.962 76.8232L141.47 56.275C141.47 56.1264 141.529 56.0967 141.648 56.0967H146.304C146.394 56.0967 146.424 56.1264 146.453 56.2156L149.557 68.1577L152.63 56.2156C152.66 56.1264 152.69 56.0967 152.779 56.0967H156.095Z" fill="#DEE2DF"/>
<path d="M169.197 76.7638C169.197 76.8827 169.137 76.9421 169.018 76.9421H157.915C157.796 76.9421 157.736 76.8827 157.736 76.7638V56.275C157.736 56.1561 157.796 56.0967 157.915 56.0967H169.018C169.137 56.0967 169.197 56.1561 169.197 56.275V59.3121C169.197 59.431 169.137 59.4905 169.018 59.4905H162.631V63.839H168.182C168.301 63.839 168.361 63.8984 168.361 64.0173V67.0544C168.361 67.1733 168.301 67.2328 168.182 67.2328H162.631V73.5466H169.018C169.137 73.5466 169.197 73.606 169.197 73.7249V76.7638Z" fill="#DEE2DF"/>
<path d="M13.1321 104.56C13.1321 104.679 13.0726 104.738 12.9534 104.738H1.85061C1.73145 104.738 1.67188 104.679 1.67188 104.56V84.0709C1.67188 83.952 1.73145 83.8926 1.85061 83.8926H12.9534C13.0726 83.8926 13.1321 83.952 13.1321 84.0709V87.108C13.1321 87.2269 13.0726 87.2864 12.9534 87.2864H6.56615V91.6349H12.1175C12.2367 91.6349 12.2963 91.6943 12.2963 91.8132V94.8503C12.2963 94.9692 12.2367 95.0287 12.1175 95.0287H6.56615V101.342H12.9534C13.0726 101.342 13.1321 101.402 13.1321 101.521V104.56Z" fill="#DEE2DF"/>
<path d="M28.2932 99.468C28.2932 101.671 27.4871 103.101 26.3235 103.995L28.323 107.062C28.3527 107.121 28.3825 107.181 28.3825 107.21C28.3825 107.3 28.323 107.329 28.2038 107.329H24.3837C24.2943 107.329 24.2645 107.3 24.205 107.21L23.101 105.156C22.5928 105.215 22.0864 105.245 21.608 105.245C18.5642 105.245 14.9229 104.173 14.9229 99.468V89.1642C14.9229 84.4293 18.5642 83.3872 21.608 83.3872C24.6518 83.3872 28.2932 84.4293 28.2932 89.1642V99.468ZM19.8171 99.468C19.8171 101.374 20.5338 101.851 21.608 101.851C22.6822 101.851 23.3989 101.374 23.3989 99.468V89.1642C23.3989 87.2584 22.6822 86.781 21.608 86.781C20.5338 86.781 19.8171 87.2584 19.8171 89.1642V99.468Z" fill="#DEE2DF"/>
<path d="M30.2031 99.9734V84.0709C30.2031 83.952 30.2627 83.8926 30.3819 83.8926H34.9187C35.0378 83.8926 35.0974 83.952 35.0974 84.0709V99.4366C35.0974 101.342 35.7843 101.85 36.8585 101.85C37.9327 101.85 38.6494 101.342 38.6494 99.4366V84.0709C38.6494 83.952 38.709 83.8926 38.8281 83.8926H42.2311C42.3503 83.8926 42.4099 83.952 42.4099 84.0709V99.9734C42.4099 104.142 39.4555 105.245 36.3205 105.245C33.0997 105.245 30.2031 104.144 30.2031 99.9734Z" fill="#DEE2DF"/>
<path d="M49.6033 104.56C49.6033 104.679 49.5437 104.738 49.4245 104.738H44.8877C44.7686 104.738 44.709 104.679 44.709 104.56V84.0709C44.709 83.952 44.7686 83.8926 44.8877 83.8926H49.4245C49.5437 83.8926 49.6033 83.952 49.6033 84.0709V104.56Z" fill="#DEE2DF"/>
<path d="M61.1244 87.2881V104.56C61.1244 104.679 61.0649 104.738 60.9457 104.738H56.4089C56.2898 104.738 56.2302 104.679 56.2302 104.56V87.2864H51.7827C51.6636 87.2864 51.604 87.2269 51.604 87.108V84.0709C51.604 83.952 51.6636 83.8926 51.7827 83.8926H65.5719C65.691 83.8926 65.7506 83.952 65.7506 84.0709V87.108C65.7506 87.2269 65.691 87.2864 65.5719 87.2864H61.1244V87.2881Z" fill="#DEE2DF"/>
<path d="M81.5676 83.8926C81.7165 83.8926 81.7761 83.952 81.7761 84.0115C81.7761 84.0709 81.7463 84.1304 81.7463 84.1304L76.7925 96.0131V104.56C76.7925 104.679 76.7329 104.738 76.6137 104.738H72.0769C71.9578 104.738 71.8982 104.679 71.8982 104.56V96.0131L66.9146 84.1304C66.9146 84.1304 66.8848 84.0709 66.8848 84.0115C66.8848 83.9223 66.9443 83.8926 67.0635 83.8926H71.6897C71.8088 83.8926 71.8684 83.9223 71.8982 84.0115L74.942 91.8727L78.0752 84.0115C78.105 83.9223 78.1646 83.8926 78.2539 83.8926H81.5676Z" fill="#DEE2DF"/>
</svg>
