<svg width="70" height="541" viewBox="0 0 70 541" fill="none" xmlns="http://www.w3.org/2000/svg">
  <rect width="70" height="1" transform="matrix(-1 0 0 1 70 0)" fill="#FC4F60"/>
  <rect width="70" height="1" transform="matrix(-1 0 0 1 70 240)" fill="#FC4F60"/>
  <rect width="70" height="1" transform="matrix(-1 0 0 1 70 120)" fill="#FC4F60"/>
  <rect width="70" height="1" transform="matrix(-1 0 0 1 70 360)" fill="#FC4F60"/>
  <rect width="70" height="1" transform="matrix(-1 0 0 1 70 60)" fill="#FC4F60"/>
  <rect width="70" height="1" transform="matrix(-1 0 0 1 70 300)" fill="#FC4F60"/>
  <rect width="70" height="1" transform="matrix(-1 0 0 1 70 180)" fill="#FC4F60"/>
  <rect width="70" height="1" transform="matrix(-1 0 0 1 70 420)" fill="#FC4F60"/>
  <rect width="70" height="1" transform="matrix(-1 0 0 1 70 510)" fill="#FC4F60"/>
  <rect width="70" height="1" transform="matrix(-1 0 0 1 70 30)" fill="#FC4F60"/>
  <rect width="70" height="1" transform="matrix(-1 0 0 1 70 270)" fill="#FC4F60"/>
  <rect width="70" height="1" transform="matrix(-1 0 0 1 70 150)" fill="#FC4F60"/>
  <rect width="70" height="1" transform="matrix(-1 0 0 1 70 390)" fill="#FC4F60"/>
  <rect width="70" height="1" transform="matrix(-1 0 0 1 70 480)" fill="#FC4F60"/>
  <rect width="70" height="1" transform="matrix(-1 0 0 1 70 90)" fill="#FC4F60"/>
  <rect width="70" height="1" transform="matrix(-1 0 0 1 70 330)" fill="#FC4F60"/>
  <rect width="70" height="1" transform="matrix(-1 0 0 1 70 210)" fill="#FC4F60"/>
  <rect width="70" height="1" transform="matrix(-1 0 0 1 70 450)" fill="#FC4F60"/>
  <rect width="70" height="1" transform="matrix(-1 0 0 1 70 540)" fill="#FC4F60"/>
</svg>
