<svg width="180" height="541" viewBox="0 0 180 541" fill="none" xmlns="http://www.w3.org/2000/svg">
  <rect width="180" height="1" transform="matrix(-1 0 0 1 180 0)" fill="#DEE2DF"/>
  <rect width="180" height="1" transform="matrix(-1 0 0 1 180 240)" fill="#DEE2DF"/>
  <rect width="180" height="1" transform="matrix(-1 0 0 1 180 120)" fill="#DEE2DF"/>
  <rect width="180" height="1" transform="matrix(-1 0 0 1 180 360)" fill="#DEE2DF"/>
  <rect width="180" height="1" transform="matrix(-1 0 0 1 180 60)" fill="#DEE2DF"/>
  <rect width="180" height="1" transform="matrix(-1 0 0 1 180 300)" fill="#DEE2DF"/>
  <rect width="180" height="1" transform="matrix(-1 0 0 1 180 180)" fill="#DEE2DF"/>
  <rect width="180" height="1" transform="matrix(-1 0 0 1 180 420)" fill="#DEE2DF"/>
  <rect width="180" height="1" transform="matrix(-1 0 0 1 180 510)" fill="#DEE2DF"/>
  <rect width="180" height="1" transform="matrix(-1 0 0 1 180 30)" fill="#DEE2DF"/>
  <rect width="180" height="1" transform="matrix(-1 0 0 1 180 270)" fill="#DEE2DF"/>
  <rect width="180" height="1" transform="matrix(-1 0 0 1 180 150)" fill="#DEE2DF"/>
  <rect width="180" height="1" transform="matrix(-1 0 0 1 180 390)" fill="#DEE2DF"/>
  <rect width="180" height="1" transform="matrix(-1 0 0 1 180 480)" fill="#DEE2DF"/>
  <rect width="180" height="1" transform="matrix(-1 0 0 1 180 90)" fill="#DEE2DF"/>
  <rect width="180" height="1" transform="matrix(-1 0 0 1 180 330)" fill="#DEE2DF"/>
  <rect width="180" height="1" transform="matrix(-1 0 0 1 180 210)" fill="#DEE2DF"/>
  <rect width="180" height="1" transform="matrix(-1 0 0 1 180 450)" fill="#DEE2DF"/>
  <rect width="180" height="1" transform="matrix(-1 0 0 1 180 540)" fill="#DEE2DF"/>
</svg>
