<svg width="70" height="241" viewBox="0 0 70 241" fill="none" xmlns="http://www.w3.org/2000/svg">
<rect width="70" height="1" transform="matrix(-1 0 0 1 70 210)" fill="#FC4F60"/>
<rect width="70" height="1" transform="matrix(-1 0 0 1 70 90)" fill="#FC4F60"/>
<rect width="70" height="1" transform="matrix(-1 0 0 1 70 30)" fill="#FC4F60"/>
<rect width="70" height="1" transform="matrix(-1 0 0 1 70 0)" fill="#FC4F60"/>
<rect width="70" height="1" transform="matrix(-1 0 0 1 70 240)" fill="#FC4F60"/>
<rect width="70" height="1" transform="matrix(-1 0 0 1 70 120)" fill="#FC4F60"/>
<rect width="70" height="1" transform="matrix(-1 0 0 1 70 60)" fill="#FC4F60"/>
<rect width="70" height="1" transform="matrix(-1 0 0 1 70 180)" fill="#FC4F60"/>
</svg>
